# xmcd
#
# Track frame offsets:
# 150
# 22132
# 34745
# 64871
# 80481
# 95043
# 127539
# 148047
# 156734
# 179378
# 185330
# 193474
# 200893
# 226295
#
# Disc length: 3206 seconds
#
#
# Revision: 0
# Processed by: cddbd v1.5.2PL0 Copyright (c) Steve Scherf et al.
# Submitted via: FreeRIP 2.943 
#
DISCID=d10c840e
DTITLE=king travolta - kill.fuck.metal
DYEAR=2006
DGENRE=Symphonic Rock
TTITLE0=wage war
TTITLE1=everything ends
TTITLE2=echoes of the retarded (going through withdraws)
TTITLE3=angels of evolution
TTITLE4=judgerr
TTITLE5=nine rows of teeth
TTITLE6=your mind is a coffin and this town will be your grave
TTITLE7=in love with shit
TTITLE8=summon the beast
TTITLE9=henry
TTITLE10=of little consequence
TTITLE11=death to you all
TTITLE12=spit the venom
TTITLE13=kill fuck metal
EXTD=zz
EXTT0=
EXTT1=
EXTT2=
EXTT3=
EXTT4=
EXTT5=
EXTT6=
EXTT7=
EXTT8=
EXTT9=
EXTT10=
EXTT11=
EXTT12=
EXTT13=
PLAYORDER=
